<svg xmlns="http://www.w3.org/2000/svg" viewBox="0 0 256 256" role="img" aria-label="Android round launcher icon">
  <defs>
    <linearGradient id="bg" x1="0" y1="0" x2="0" y2="1">
      <stop offset="0%" stop-color="#f5f0e7" />
      <stop offset="100%" stop-color="#ddd3c3" />
    </linearGradient>
    <radialGradient id="shine" cx="28%" cy="20%" r="70%">
      <stop offset="0%" stop-color="#ffffff" stop-opacity="0.42" />
      <stop offset="45%" stop-color="#ffffff" stop-opacity="0.14" />
      <stop offset="100%" stop-color="#ffffff" stop-opacity="0" />
    </radialGradient>
    <radialGradient id="vignette" cx="72%" cy="80%" r="78%">
      <stop offset="55%" stop-color="#8d775b" stop-opacity="0" />
      <stop offset="100%" stop-color="#8d775b" stop-opacity="0.22" />
    </radialGradient>
    <linearGradient id="lowerShade" x1="0" y1="0" x2="0" y2="1">
      <stop offset="0%" stop-color="#8d775b" stop-opacity="0" />
      <stop offset="100%" stop-color="#8d775b" stop-opacity="0.16" />
    </linearGradient>
  </defs>

  <rect x="16" y="16" width="224" height="224" rx="52" fill="url(#bg)" />
  <rect x="16" y="16" width="224" height="224" rx="52" fill="url(#shine)" />
  <rect x="16" y="16" width="224" height="224" rx="52" fill="url(#vignette)" />
  <rect x="16" y="16" width="224" height="224" rx="52" fill="url(#lowerShade)" />
  <rect
    x="17"
    y="17"
    width="222"
    height="222"
    rx="51"
    fill="none"
    stroke="#ffffff"
    stroke-opacity="0.22"
    stroke-width="2"
  />

  <g transform="translate(132 136) scale(3.3) translate(-22.5 -24)" opacity="0.18">
    <g
      fill="#6d5c48"
      fill-rule="evenodd"
      stroke="#6d5c48"
      stroke-linecap="round"
      stroke-linejoin="round"
      stroke-width="1.6"
    >
      <path stroke-linecap="butt" d="M9 39h27v-3H9v3zm3-3v-4h21v4H12zm-1-22V9h4v2h5V9h5v2h5V9h4v5"/>
      <path d="m34 14-3 3H14l-3-3"/>
      <path stroke-linecap="butt" stroke-linejoin="miter" d="M31 17v12.5H14V17"/>
      <path d="m31 29.5 1.5 2.5h-20l1.5-2.5"/>
      <path fill="none" stroke-linejoin="miter" d="M11 14h23"/>
    </g>
  </g>
  <g transform="translate(128 128) scale(3.3) translate(-22.5 -24)">
    <g
      fill="#fff"
      fill-rule="evenodd"
      stroke="#111"
      stroke-linecap="round"
      stroke-linejoin="round"
      stroke-width="1.5"
    >
      <path stroke-linecap="butt" d="M9 39h27v-3H9v3zm3-3v-4h21v4H12zm-1-22V9h4v2h5V9h5v2h5V9h4v5"/>
      <path d="m34 14-3 3H14l-3-3"/>
      <path stroke-linecap="butt" stroke-linejoin="miter" d="M31 17v12.5H14V17"/>
      <path d="m31 29.5 1.5 2.5h-20l1.5-2.5"/>
      <path fill="none" stroke-linejoin="miter" d="M11 14h23"/>
    </g>
  </g>
  <rect
    x="16"
    y="16"
    width="224"
    height="224"
    rx="52"
    fill="none"
    stroke="#ffffff"
    stroke-opacity="0.08"
    stroke-width="1"
  />
</svg>
